<svg width="760" height="500" xmlns="http://www.w3.org/2000/svg">
  <defs>
    <marker id="arr" markerWidth="10" markerHeight="7" refX="9" refY="3.5" orient="auto">
      <polygon points="0 0, 10 3.5, 0 7" fill="#7f8c8d"/>
    </marker>
  </defs>

  <rect width="760" height="500" fill="#f8f9fa"/>

  <!-- Driver -->
  <rect x="230" y="20" width="300" height="68" rx="8" fill="#8e44ad"/>
  <text x="380" y="46" text-anchor="middle" font-family="sans-serif" font-size="13" font-weight="bold" fill="white">Driver Program</text>
  <line x1="240" y1="54" x2="520" y2="54" stroke="#7d3c98" stroke-width="1"/>
  <text x="380" y="73" text-anchor="middle" font-family="monospace" font-size="11" fill="#e8daef">SparkContext / DAGScheduler / TaskScheduler</text>

  <!-- Arrow Driver to Master -->
  <line x1="380" y1="88" x2="380" y2="132" stroke="#7f8c8d" stroke-width="2" marker-end="url(#arr)"/>
  <text x="395" y="115" font-family="sans-serif" font-size="10" fill="#7f8c8d">submits app</text>

  <!-- Master -->
  <rect x="230" y="132" width="300" height="68" rx="8" fill="#2c3e50"/>
  <text x="380" y="158" text-anchor="middle" font-family="sans-serif" font-size="13" font-weight="bold" fill="white">Master Node</text>
  <line x1="240" y1="166" x2="520" y2="166" stroke="#7f8c8d" stroke-width="1"/>
  <text x="380" y="187" text-anchor="middle" font-family="sans-serif" font-size="11" fill="#bdc3c7">Cluster Manager — assigns resources to apps</text>

  <!-- Arrows Master to Workers -->
  <line x1="280" y1="200" x2="135" y2="258" stroke="#7f8c8d" stroke-width="1.5" marker-end="url(#arr)"/>
  <line x1="380" y1="200" x2="380" y2="258" stroke="#7f8c8d" stroke-width="1.5" marker-end="url(#arr)"/>
  <line x1="480" y1="200" x2="625" y2="258" stroke="#7f8c8d" stroke-width="1.5" marker-end="url(#arr)"/>

  <!-- Worker 1 -->
  <rect x="20" y="258" width="230" height="200" rx="8" fill="none" stroke="#1a6b3a" stroke-width="2"/>
  <rect x="20" y="258" width="230" height="32" rx="8" fill="#1a6b3a"/>
  <text x="135" y="279" text-anchor="middle" font-family="sans-serif" font-size="12" font-weight="bold" fill="white">Worker Node 1</text>
  <!-- Executor 1a -->
  <rect x="35" y="304" width="200" height="60" rx="5" fill="#2980b9"/>
  <text x="135" y="326" text-anchor="middle" font-family="sans-serif" font-size="11" font-weight="bold" fill="white">Executor</text>
  <rect x="45" y="336" width="50" height="18" rx="3" fill="#f39c12"/>
  <text x="70" y="349" text-anchor="middle" font-family="sans-serif" font-size="9" fill="#2c3e50">Task</text>
  <rect x="103" y="336" width="50" height="18" rx="3" fill="#f39c12"/>
  <text x="128" y="349" text-anchor="middle" font-family="sans-serif" font-size="9" fill="#2c3e50">Task</text>
  <rect x="161" y="336" width="50" height="18" rx="3" fill="#7f8c8d"/>
  <text x="186" y="349" text-anchor="middle" font-family="sans-serif" font-size="9" fill="white">idle</text>
  <!-- Executor 1b -->
  <rect x="35" y="378" width="200" height="60" rx="5" fill="#2980b9"/>
  <text x="135" y="400" text-anchor="middle" font-family="sans-serif" font-size="11" font-weight="bold" fill="white">Executor</text>
  <rect x="45" y="410" width="50" height="18" rx="3" fill="#f39c12"/>
  <text x="70" y="423" text-anchor="middle" font-family="sans-serif" font-size="9" fill="#2c3e50">Task</text>
  <rect x="103" y="410" width="50" height="18" rx="3" fill="#7f8c8d"/>
  <text x="128" y="423" text-anchor="middle" font-family="sans-serif" font-size="9" fill="white">idle</text>
  <rect x="161" y="410" width="50" height="18" rx="3" fill="#7f8c8d"/>
  <text x="186" y="423" text-anchor="middle" font-family="sans-serif" font-size="9" fill="white">idle</text>

  <!-- Worker 2 -->
  <rect x="265" y="258" width="230" height="200" rx="8" fill="none" stroke="#1a6b3a" stroke-width="2"/>
  <rect x="265" y="258" width="230" height="32" rx="8" fill="#1a6b3a"/>
  <text x="380" y="279" text-anchor="middle" font-family="sans-serif" font-size="12" font-weight="bold" fill="white">Worker Node 2</text>
  <rect x="280" y="304" width="200" height="60" rx="5" fill="#2980b9"/>
  <text x="380" y="326" text-anchor="middle" font-family="sans-serif" font-size="11" font-weight="bold" fill="white">Executor</text>
  <rect x="290" y="336" width="50" height="18" rx="3" fill="#f39c12"/>
  <text x="315" y="349" text-anchor="middle" font-family="sans-serif" font-size="9" fill="#2c3e50">Task</text>
  <rect x="348" y="336" width="50" height="18" rx="3" fill="#f39c12"/>
  <text x="373" y="349" text-anchor="middle" font-family="sans-serif" font-size="9" fill="#2c3e50">Task</text>
  <rect x="406" y="336" width="50" height="18" rx="3" fill="#f39c12"/>
  <text x="431" y="349" text-anchor="middle" font-family="sans-serif" font-size="9" fill="#2c3e50">Task</text>
  <rect x="280" y="378" width="200" height="60" rx="5" fill="#2980b9"/>
  <text x="380" y="400" text-anchor="middle" font-family="sans-serif" font-size="11" font-weight="bold" fill="white">Executor</text>
  <rect x="290" y="410" width="50" height="18" rx="3" fill="#f39c12"/>
  <text x="315" y="423" text-anchor="middle" font-family="sans-serif" font-size="9" fill="#2c3e50">Task</text>
  <rect x="348" y="410" width="50" height="18" rx="3" fill="#7f8c8d"/>
  <text x="373" y="423" text-anchor="middle" font-family="sans-serif" font-size="9" fill="white">idle</text>
  <rect x="406" y="410" width="50" height="18" rx="3" fill="#7f8c8d"/>
  <text x="431" y="423" text-anchor="middle" font-family="sans-serif" font-size="9" fill="white">idle</text>

  <!-- Worker 3 -->
  <rect x="510" y="258" width="230" height="200" rx="8" fill="none" stroke="#1a6b3a" stroke-width="2"/>
  <rect x="510" y="258" width="230" height="32" rx="8" fill="#1a6b3a"/>
  <text x="625" y="279" text-anchor="middle" font-family="sans-serif" font-size="12" font-weight="bold" fill="white">Worker Node 3</text>
  <rect x="525" y="304" width="200" height="60" rx="5" fill="#2980b9"/>
  <text x="625" y="326" text-anchor="middle" font-family="sans-serif" font-size="11" font-weight="bold" fill="white">Executor</text>
  <rect x="535" y="336" width="50" height="18" rx="3" fill="#f39c12"/>
  <text x="560" y="349" text-anchor="middle" font-family="sans-serif" font-size="9" fill="#2c3e50">Task</text>
  <rect x="593" y="336" width="50" height="18" rx="3" fill="#f39c12"/>
  <text x="618" y="349" text-anchor="middle" font-family="sans-serif" font-size="9" fill="#2c3e50">Task</text>
  <rect x="651" y="336" width="50" height="18" rx="3" fill="#7f8c8d"/>
  <text x="676" y="349" text-anchor="middle" font-family="sans-serif" font-size="9" fill="white">idle</text>
  <rect x="525" y="378" width="200" height="60" rx="5" fill="#2980b9"/>
  <text x="625" y="400" text-anchor="middle" font-family="sans-serif" font-size="11" font-weight="bold" fill="white">Executor</text>
  <rect x="535" y="410" width="50" height="18" rx="3" fill="#f39c12"/>
  <text x="560" y="423" text-anchor="middle" font-family="sans-serif" font-size="9" fill="#2c3e50">Task</text>
  <rect x="593" y="410" width="50" height="18" rx="3" fill="#7f8c8d"/>
  <text x="618" y="423" text-anchor="middle" font-family="sans-serif" font-size="9" fill="white">idle</text>
  <rect x="651" y="410" width="50" height="18" rx="3" fill="#7f8c8d"/>
  <text x="676" y="423" text-anchor="middle" font-family="sans-serif" font-size="9" fill="white">idle</text>

  <!-- Caption -->
  <text x="380" y="486" text-anchor="middle" font-family="sans-serif" font-size="11" fill="#7f8c8d">Spark Standalone: 1 Master manages N Worker nodes, each running M Executors (JVM processes)</text>
</svg>
