<svg width="760" height="490" xmlns="http://www.w3.org/2000/svg">
  <defs>
    <marker id="arr" markerWidth="10" markerHeight="7" refX="9" refY="3.5" orient="auto">
      <polygon points="0 0, 10 3.5, 0 7" fill="#7f8c8d"/>
    </marker>
    <marker id="arr-rev" markerWidth="10" markerHeight="7" refX="1" refY="3.5" orient="auto-start-reverse">
      <polygon points="0 0, 10 3.5, 0 7" fill="#7f8c8d"/>
    </marker>
  </defs>

  <rect width="760" height="490" fill="#f8f9fa"/>

  <!-- Main Memory -->
  <rect x="130" y="20" width="500" height="108" rx="8" fill="#2c3e50"/>
  <text x="380" y="44" text-anchor="middle" font-family="sans-serif" font-size="14" font-weight="bold" fill="#ecf0f1">Main Memory (Heap)</text>
  <line x1="140" y1="52" x2="620" y2="52" stroke="#7f8c8d" stroke-width="1"/>
  <text x="200" y="74" font-family="monospace" font-size="12" fill="#bdc3c7">static int counter = 0;</text>
  <text x="200" y="96" font-family="monospace" font-size="12" fill="#3498db">volatile boolean flag = false;</text>
  <text x="200" y="116" font-family="sans-serif" font-size="10" fill="#7f8c8d">volatile is always read from and written to here, never cached</text>

  <!-- Arrows: Main Memory to CPU cores (bidirectional) -->
  <line x1="268" y1="128" x2="220" y2="178" stroke="#95a5a6" stroke-width="2" marker-start="url(#arr-rev)" marker-end="url(#arr)"/>
  <line x1="492" y1="128" x2="540" y2="178" stroke="#95a5a6" stroke-width="2" marker-start="url(#arr-rev)" marker-end="url(#arr)"/>

  <!-- CPU Core 1 -->
  <rect x="60" y="178" width="300" height="152" rx="8" fill="#3d566e"/>
  <text x="210" y="200" text-anchor="middle" font-family="sans-serif" font-size="12" font-weight="bold" fill="#bdc3c7">CPU Core 1</text>

  <!-- L1 Cache 1 -->
  <rect x="85" y="210" width="250" height="102" rx="5" fill="#e67e22"/>
  <text x="210" y="232" text-anchor="middle" font-family="sans-serif" font-size="11" font-weight="bold" fill="#6b2d00">L1 / L2 Cache</text>
  <line x1="95" y1="238" x2="325" y2="238" stroke="#ca6f1e" stroke-width="1"/>
  <text x="210" y="260" text-anchor="middle" font-family="monospace" font-size="12" fill="#2c3e50">counter = 5</text>
  <text x="210" y="280" text-anchor="middle" font-family="sans-serif" font-size="10" fill="#6b2d00">local cached copy</text>
  <text x="210" y="298" text-anchor="middle" font-family="sans-serif" font-size="10" fill="#6b2d00">may differ from main memory</text>

  <!-- Arrow: Core 1 to Thread 1 -->
  <line x1="210" y1="330" x2="210" y2="370" stroke="#95a5a6" stroke-width="2" marker-end="url(#arr)"/>

  <!-- Thread 1 -->
  <rect x="60" y="370" width="300" height="78" rx="8" fill="#2980b9"/>
  <text x="210" y="396" text-anchor="middle" font-family="sans-serif" font-size="13" font-weight="bold" fill="white">Thread 1</text>
  <text x="210" y="416" text-anchor="middle" font-family="monospace" font-size="11" fill="#d6eaf8">counter++;  // reads cache: 5</text>
  <text x="210" y="435" text-anchor="middle" font-family="monospace" font-size="11" fill="#d6eaf8">            // cache now: 6</text>

  <!-- CPU Core 2 -->
  <rect x="400" y="178" width="300" height="152" rx="8" fill="#3d566e"/>
  <text x="550" y="200" text-anchor="middle" font-family="sans-serif" font-size="12" font-weight="bold" fill="#bdc3c7">CPU Core 2</text>

  <!-- L1 Cache 2 -->
  <rect x="425" y="210" width="250" height="102" rx="5" fill="#e67e22"/>
  <text x="550" y="232" text-anchor="middle" font-family="sans-serif" font-size="11" font-weight="bold" fill="#6b2d00">L1 / L2 Cache</text>
  <line x1="435" y1="238" x2="665" y2="238" stroke="#ca6f1e" stroke-width="1"/>
  <text x="550" y="260" text-anchor="middle" font-family="monospace" font-size="12" fill="#2c3e50">counter = 0</text>
  <text x="550" y="280" text-anchor="middle" font-family="sans-serif" font-size="10" fill="#6b2d00">stale cached copy</text>
  <text x="550" y="298" text-anchor="middle" font-family="sans-serif" font-size="10" fill="#6b2d00">unaware of Thread 1 update</text>

  <!-- Arrow: Core 2 to Thread 2 -->
  <line x1="550" y1="330" x2="550" y2="370" stroke="#95a5a6" stroke-width="2" marker-end="url(#arr)"/>

  <!-- Thread 2 -->
  <rect x="400" y="370" width="300" height="78" rx="8" fill="#c0392b"/>
  <text x="550" y="396" text-anchor="middle" font-family="sans-serif" font-size="13" font-weight="bold" fill="white">Thread 2</text>
  <text x="550" y="416" text-anchor="middle" font-family="monospace" font-size="11" fill="#fadbd8">print(counter); // reads cache</text>
  <text x="550" y="435" text-anchor="middle" font-family="monospace" font-size="11" fill="#fadbd8">// prints 0, expects 5!</text>

  <!-- Caption -->
  <text x="380" y="478" text-anchor="middle" font-family="sans-serif" font-size="11" fill="#7f8c8d">Each CPU core may hold its own cached copy — static variables are not immune to this</text>
</svg>
