<svg width="700" height="370" xmlns="http://www.w3.org/2000/svg">
  <defs>
    <marker id="arr" markerWidth="10" markerHeight="7" refX="9" refY="3.5" orient="auto">
      <polygon points="0 0, 10 3.5, 0 7" fill="#7f8c8d"/>
    </marker>
    <marker id="arr-red" markerWidth="10" markerHeight="7" refX="9" refY="3.5" orient="auto">
      <polygon points="0 0, 10 3.5, 0 7" fill="#c0392b"/>
    </marker>
    <marker id="arr-green" markerWidth="10" markerHeight="7" refX="9" refY="3.5" orient="auto">
      <polygon points="0 0, 10 3.5, 0 7" fill="#27ae60"/>
    </marker>
  </defs>

  <rect width="700" height="370" fill="#f8f9fa"/>

  <!-- Main Memory -->
  <rect x="200" y="20" width="300" height="70" rx="8" fill="#2c3e50"/>
  <text x="350" y="44" text-anchor="middle" font-family="sans-serif" font-size="13" font-weight="bold" fill="#ecf0f1">Main Memory</text>
  <line x1="210" y1="52" x2="490" y2="52" stroke="#7f8c8d" stroke-width="1"/>
  <text x="350" y="74" text-anchor="middle" font-family="monospace" font-size="13" fill="#bdc3c7">static int counter = 0</text>

  <!-- Arrow: Main Memory to Thread 1 cache (flush, partial) -->
  <line x1="280" y1="90" x2="180" y2="150" stroke="#27ae60" stroke-width="2" marker-end="url(#arr-green)"/>
  <text x="175" y="122" text-anchor="middle" font-family="sans-serif" font-size="10" fill="#27ae60">initial load</text>

  <!-- Arrow: Main Memory to Thread 2 cache -->
  <line x1="420" y1="90" x2="520" y2="150" stroke="#27ae60" stroke-width="2" marker-end="url(#arr-green)"/>
  <text x="525" y="122" text-anchor="middle" font-family="sans-serif" font-size="10" fill="#27ae60">initial load</text>

  <!-- Thread 1 Cache -->
  <rect x="40" y="150" width="240" height="100" rx="8" fill="#2980b9"/>
  <text x="160" y="175" text-anchor="middle" font-family="sans-serif" font-size="13" font-weight="bold" fill="white">Thread 1</text>
  <line x1="50" y1="183" x2="270" y2="183" stroke="#2471a3" stroke-width="1"/>
  <text x="160" y="208" text-anchor="middle" font-family="monospace" font-size="14" fill="white">counter = 5</text>
  <text x="160" y="230" text-anchor="middle" font-family="sans-serif" font-size="10" fill="#aed6f1">updated locally, not flushed</text>

  <!-- Thread 2 Cache -->
  <rect x="420" y="150" width="240" height="100" rx="8" fill="#c0392b"/>
  <text x="540" y="175" text-anchor="middle" font-family="sans-serif" font-size="13" font-weight="bold" fill="white">Thread 2</text>
  <line x1="430" y1="183" x2="650" y2="183" stroke="#a93226" stroke-width="1"/>
  <text x="540" y="208" text-anchor="middle" font-family="monospace" font-size="14" fill="white">counter = 0</text>
  <text x="540" y="230" text-anchor="middle" font-family="sans-serif" font-size="10" fill="#f1948a">stale! never saw update</text>

  <!-- No flush arrow (crossed) -->
  <line x1="290" y1="200" x2="410" y2="200" stroke="#7f8c8d" stroke-width="1.5" stroke-dasharray="6,4"/>
  <text x="350" y="195" text-anchor="middle" font-family="sans-serif" font-size="10" fill="#7f8c8d">no sync</text>

  <!-- Thread 2 reads stale -->
  <rect x="420" y="280" width="240" height="60" rx="8" fill="#e8daef" stroke="#c0392b" stroke-width="2"/>
  <text x="540" y="305" text-anchor="middle" font-family="monospace" font-size="12" fill="#c0392b">if (counter == 5) ...</text>
  <text x="540" y="325" text-anchor="middle" font-family="sans-serif" font-size="11" fill="#c0392b">reads 0 — condition false!</text>

  <line x1="540" y1="250" x2="540" y2="278" stroke="#c0392b" stroke-width="2" marker-end="url(#arr-red)"/>

  <!-- Error label -->
  <rect x="590" y="195" width="80" height="24" rx="4" fill="#c0392b"/>
  <text x="630" y="211" text-anchor="middle" font-family="sans-serif" font-size="11" font-weight="bold" fill="white">STALE READ</text>

  <!-- Caption -->
  <text x="350" y="357" text-anchor="middle" font-family="sans-serif" font-size="11" fill="#7f8c8d">Thread 1 updates its local cache but the change never reaches Thread 2</text>
</svg>
